<svg version="1.2" xmlns="http://www.w3.org/2000/svg" viewBox="0 0 60 24" width="60" height="24"><defs><clipPath clipPathUnits="userSpaceOnUse" id="cp1"><path d="m-170-674h1400v3600h-1400z"/></clipPath></defs><style>.a{fill:#332208}</style><g clip-path="url(#cp1)"><path class="a" d="m25 9h4v2h-4z"/><path fill-rule="evenodd" class="a" d="m60 7v8.1c0 1.6-0.9 3-2.4 3.5l-3.2 1.3q-0.2 0.1-0.4 0.1h-0.4c-0.6 1.7-1.9 3.1-3.6 3.7-3.1 1.1-6.6-0.6-7.6-3.7h-26.8c-0.6 1.7-1.9 3.1-3.6 3.7-3.1 1.1-6.6-0.6-7.6-3.7h-3.4c-0.6 0-1-0.4-1-1v-5.9c0-1.7 0.9-3.2 2.3-4 3.5-2 7.4-3 11.4-3.1l3.5-1.9c4.9-2.7 10.5-4.1 16.2-4.1h1.2c4.8 0 9.5 1 13.9 3q2 0.9 3.8 2l6.8 1c0.5 0.1 0.9 0.5 0.9 1zm-46 11c0-1.9-1.3-3.5-3.2-3.9-2.2-0.5-4.3 0.9-4.7 3.1-0.5 2.2 0.9 4.3 3.1 4.7 2.2 0.5 4.3-0.9 4.7-3.1q0.1-0.4 0.1-0.8zm18-10h-18c-3.8 0-7.4 1-10.7 2.8-0.8 0.5-1.3 1.3-1.3 2.3v4.9h2c0-3.3 2.7-6 6-6 3.3 0 6 2.7 6 6h16zm0-6c-4.9 0.3-9.6 1.6-13.9 3.9l-0.2 0.1h14.1zm2 4h10.6l1.7-1.8c-3.7-1.5-7.7-2.2-11.7-2.2h-0.6zm18 12c0-1.9-1.3-3.6-3.2-4-2.2-0.4-4.3 1-4.7 3.2-0.5 2.1 0.9 4.2 3.1 4.7 2.2 0.4 4.3-1 4.7-3.1q0.1-0.4 0.1-0.8zm6-10.2l-6.1-0.9q-0.3 0-0.4-0.1-1.6-1-3.2-1.7l-2.6 2.6q-0.3 0.2-0.7 0.3h-11v10h8c0-3.4 2.7-6 6-6q0.3 0 0.6 0 0.1 0 0.2 0 0.2 0 0.4 0.1 0.1 0 0.2 0 0.2 0.1 0.4 0.1 0.1 0.1 0.2 0.1 0.2 0.1 0.3 0.1 0.1 0.1 0.3 0.1 0.1 0.1 0.3 0.2 0.1 0 0.2 0.1 0.1 0.1 0.2 0.2 0.2 0.1 0.3 0.1 0.1 0.1 0.2 0.2 0.1 0.1 0.2 0.2 0.1 0.1 0.2 0.2 0.1 0.1 0.2 0.2 0.1 0.1 0.2 0.2 0.1 0.1 0.2 0.3 0.1 0.1 0.2 0.2 0.1 0.1 0.1 0.2 0.1 0.1 0.2 0.3 0 0.1 0.1 0.2 0.1 0.2 0.1 0.3 0.1 0.1 0.1 0.3 0.1 0.1 0.1 0.2 0.1 0.2 0.1 0.3 0 0.2 0.1 0.3 0 0.1 0 0.3 0 0.2 0.1 0.3 0 0.2 0 0.3 0 0.1 0 0.3l2.9-1.2c0.7-0.2 1.1-0.9 1.1-1.6v-4.1h-3v-2h3z"/></g></svg>