<svg version="1.2" xmlns="http://www.w3.org/2000/svg" viewBox="0 0 36 36" width="36" height="36"><defs><clipPath clipPathUnits="userSpaceOnUse" id="cp1"><path d="m-381-668h1400v3600h-1400z"/></clipPath></defs><style>.a{fill:#332208}</style><g clip-path="url(#cp1)"><path class="a" d="m20.8 10.7c0.4 0 0.7 0.3 0.7 0.7 0 0.4-0.3 0.7-0.7 0.7-0.4 0-0.7-0.3-0.7-0.7 0-0.4 0.3-0.7 0.7-0.7z"/><path class="a" d="m15.6 24.4c-0.3-0.3-0.3-0.7 0-1 0.2-0.3 0.7-0.3 0.9 0 0.3 0.3 0.3 0.7 0 1-0.2 0.3-0.7 0.3-0.9 0z"/><path fill-rule="evenodd" class="a" d="m0.2 27.8c-0.3-0.2-0.3-0.7 0-1l3.3-3.3c0.6-0.5 1.3-0.7 1.9-0.6 1.6-2.9 4.6-4.5 8-4.5q1.8 0 3.5 0.7h7.8c0.9 0 1.7 0.4 2.2 1.1l4.2-4.3c1-1.2 2.7-1.3 3.9-0.3 1.2 1 1.3 2.8 0.3 4-6.7 8-6.3 7.5-6.3 7.6-1.2 1.1-2.8 1.8-4.5 1.8h-9.3c-0.6 0-1.1 0.2-1.5 0.6l-0.7 0.7c0.3 0.7 0.1 1.6-0.5 2.1l-3.4 3.4c-0.3 0.3-0.7 0.3-1 0zm13.2-8c-3.1 0-5.5 1.3-6.8 3.8l5.6 5.5 0.6-0.6c0.6-0.6 1.5-1 2.4-1h9.3c1.3 0 2.5-0.5 3.4-1.4l6.4-7.5c0.5-0.6 0.4-1.5-0.2-2-0.6-0.5-1.5-0.4-2 0.2 0 0-0.6 0.6-4.6 4.7q0 0.2 0 0.4c0 1.5-1.2 2.8-2.8 2.8h-5.7c-0.4 0-0.7-0.3-0.7-0.7 0-0.4 0.3-0.7 0.7-0.7h5.7c0.8 0 1.4-0.6 1.4-1.4 0-0.8-0.6-1.4-1.4-1.4h-8q-0.1 0-0.2-0.1-1.5-0.6-3.1-0.6zm-11.7 7.5l6.9 7 2.9-2.9c0.2-0.2 0.3-0.6 0.1-0.9-0.1-0.1-6.1-6.1-6.2-6.2-0.3-0.1-0.6-0.1-0.9 0.1z"/><path fill-rule="evenodd" class="a" d="m8.9 12.8v-10.7c0-1.2 0.9-2.1 2.1-2.1h16.8c1.2 0 2.2 0.9 2.2 2.1 0 1.3 0 8.9 0 10.7 0 1.2-1 2.1-2.2 2.1h-16.8c-1.2 0-2.1-0.9-2.1-2.1zm19.6-8.6h-18.2v1.4h18.2zm0 8.6v-5.8h-18.2v5.8c0 0.4 0.3 0.7 0.7 0.7h16.8c0.4 0 0.7-0.3 0.7-0.7zm-18.2-10.7v0.7h18.2v-0.7c0-0.4-0.3-0.7-0.7-0.7h-16.8c-0.4 0-0.7 0.3-0.7 0.7z"/><path class="a" d="m26.4 10.7c0.4 0 0.7 0.3 0.7 0.7 0 0.4-0.3 0.7-0.7 0.7h-2.8c-0.4 0-0.7-0.3-0.7-0.7 0-0.4 0.3-0.7 0.7-0.7h2.8z"/></g></svg>