<svg version="1.2" xmlns="http://www.w3.org/2000/svg" viewBox="0 0 30 30" width="30" height="30"><defs><clipPath clipPathUnits="userSpaceOnUse" id="cp1"><path d="m-625-3546h1400v3600h-1400z"/></clipPath></defs><style>.a{fill:#c5ac2d}</style><g clip-path="url(#cp1)"><path class="a" d="m30 15c0 6.8-4.6 12.6-10.9 14.4v-11.1h3.3l0.5-3.7h-3.8v-2.4c0-1.1 0.3-1.9 1.9-1.9h2v-3.3c-0.4-0.1-1.5-0.2-2.9-0.2-2.9 0-4.8 1.8-4.8 5v2.8h-3.3v3.7h3.3v11.7q-0.2 0-0.3 0c-8.3 0-15-6.7-15-15 0-8.3 6.7-15 15-15 8.3 0 15 6.7 15 15z"/></g></svg>