<svg version="1.2" xmlns="http://www.w3.org/2000/svg" viewBox="0 0 30 30" width="30" height="30"><defs><clipPath clipPathUnits="userSpaceOnUse" id="cp1"><path d="m-685-3546h1400v3600h-1400z"/></clipPath></defs><style>.a{fill:#c5ac2d}</style><g clip-path="url(#cp1)"><path class="a" d="m17.9 15c0 1.6-1.3 2.9-2.9 2.9-1.6 0-2.9-1.3-2.9-2.9 0-1.6 1.3-2.9 2.9-2.9 1.6 0 2.9 1.3 2.9 2.9z"/><path fill-rule="evenodd" class="a" d="m21.7 9.9c0.1 0.3 0.3 0.8 0.3 1.6 0.1 0.9 0.1 1.2 0.1 3.5 0 2.3 0 2.6-0.1 3.5 0 0.8-0.2 1.3-0.3 1.6-0.3 0.7-0.9 1.3-1.6 1.6-0.3 0.1-0.8 0.3-1.6 0.3-0.9 0.1-1.2 0.1-3.5 0.1-2.3 0-2.6 0-3.5-0.1-0.8 0-1.3-0.2-1.6-0.3q-0.5-0.2-1-0.6-0.4-0.5-0.6-1c-0.1-0.3-0.3-0.8-0.3-1.6-0.1-0.9-0.1-1.2-0.1-3.5 0-2.3 0-2.6 0.1-3.5 0-0.8 0.2-1.3 0.3-1.6q0.2-0.5 0.6-1 0.5-0.4 1-0.6c0.3-0.1 0.8-0.3 1.6-0.3 0.9-0.1 1.2-0.1 3.5-0.1 2.3 0 2.6 0 3.5 0.1 0.8 0 1.3 0.2 1.6 0.3q0.5 0.2 1 0.6 0.4 0.5 0.6 1zm-2.3 5.1c0-2.4-2-4.4-4.4-4.4-2.4 0-4.4 2-4.4 4.4 0 2.4 2 4.4 4.4 4.4 2.4 0 4.4-2 4.4-4.4zm1.2-4.6c0-0.6-0.4-1-1-1-0.6 0-1 0.4-1 1 0 0.6 0.4 1 1 1 0.6 0 1-0.4 1-1z"/><path fill-rule="evenodd" class="a" d="m30 15c0 8.3-6.7 15-15 15-8.3 0-15-6.7-15-15 0-8.3 6.7-15 15-15 8.3 0 15 6.7 15 15zm-6.4 3.6c0-1 0-1.3 0-3.6 0-2.3 0-2.6 0-3.6-0.1-0.9-0.2-1.5-0.4-2q-0.4-0.9-1-1.6-0.7-0.6-1.6-1c-0.5-0.2-1.1-0.3-2-0.4-1 0-1.3 0-3.6 0-2.3 0-2.6 0-3.6 0-0.9 0.1-1.5 0.2-2 0.4q-0.9 0.4-1.6 1-0.6 0.7-1 1.6c-0.2 0.5-0.3 1.1-0.4 2 0 1 0 1.3 0 3.6 0 2.3 0 2.6 0 3.6 0.1 0.9 0.2 1.5 0.4 2q0.4 0.9 1 1.6 0.7 0.6 1.6 1c0.5 0.2 1.1 0.3 2 0.4 1 0 1.3 0 3.6 0 2.3 0 2.6 0 3.6 0 0.9-0.1 1.5-0.2 2-0.4 1.2-0.5 2.1-1.4 2.6-2.6 0.2-0.5 0.3-1.1 0.4-2z"/></g></svg>