<svg version="1.2" xmlns="http://www.w3.org/2000/svg" viewBox="0 0 47 32" width="47" height="32"><defs><clipPath clipPathUnits="userSpaceOnUse" id="cp1"><path d="m-577-668h1400v3600h-1400z"/></clipPath></defs><style>.a{fill:#332208}</style><g clip-path="url(#cp1)"><path fill-rule="evenodd" class="a" d="m27.7 6.3c0 1.1-0.4 2.1-1.1 2.8-0.8 0.8-1.7 1.2-2.8 1.2-0.7 0-1.5-0.2-2.1-0.7-0.7-0.4-1.2-1-1.5-1.8-0.3-0.7-0.3-1.5-0.2-2.2 0.2-0.8 0.5-1.5 1.1-2.1 0.5-0.5 1.2-0.9 2-1 0.7-0.2 1.5-0.1 2.2 0.2 0.7 0.3 1.3 0.8 1.8 1.5 0.4 0.6 0.6 1.4 0.6 2.1zm-1.9 2c0.5-0.5 0.8-1.2 0.8-2 0-0.5-0.2-1-0.5-1.5-0.3-0.4-0.7-0.8-1.2-1-0.5-0.2-1.1-0.3-1.6-0.2-0.5 0.1-1 0.4-1.4 0.8-0.4 0.4-0.6 0.9-0.7 1.4-0.2 0.5-0.1 1.1 0.1 1.6 0.2 0.5 0.6 0.9 1 1.3 0.5 0.3 1 0.4 1.5 0.4 0.7 0 1.4-0.3 2-0.8z"/><path fill-rule="evenodd" class="a" d="m11.2 16.1c0.7 0 1.4 0.3 1.9 0.8 0.5 0.5 0.8 1.2 0.8 1.9 0 0.6-0.2 1.1-0.5 1.5-0.3 0.5-0.7 0.8-1.2 1.1-0.5 0.2-1 0.2-1.5 0.1-0.6-0.1-1-0.4-1.4-0.7-0.4-0.4-0.7-0.9-0.8-1.4-0.1-0.6 0-1.1 0.2-1.6 0.2-0.5 0.5-0.9 1-1.2 0.4-0.3 0.9-0.5 1.5-0.5zm0 4.3c0.4 0 0.8-0.2 1.1-0.5 0.3-0.3 0.4-0.7 0.4-1.1q0-0.4-0.2-0.8-0.3-0.4-0.7-0.6-0.5-0.2-0.9-0.1-0.5 0.1-0.8 0.4-0.3 0.4-0.4 0.8-0.1 0.5 0.1 0.9 0.1 0.5 0.5 0.7 0.4 0.3 0.9 0.3z"/><path fill-rule="evenodd" class="a" d="m29.8 21.9c0.4 0.4 0.7 1 0.7 1.6q0 0.7-0.4 1.3-0.4 0.6-1 0.9-0.7 0.2-1.4 0.1-0.6-0.1-1.1-0.6-0.5-0.5-0.7-1.2-0.1-0.7 0.2-1.4 0.2-0.6 0.8-1 0.6-0.4 1.3-0.4c0.6 0 1.2 0.2 1.6 0.7zm-1.6 2.8c0.3 0 0.6-0.1 0.8-0.4 0.2-0.2 0.3-0.5 0.3-0.8q0-0.3-0.1-0.6-0.2-0.3-0.6-0.5-0.3-0.1-0.6 0-0.4 0-0.6 0.3-0.3 0.2-0.3 0.6-0.1 0.3 0 0.7 0.2 0.3 0.4 0.5 0.3 0.2 0.7 0.2z"/><path fill-rule="evenodd" class="a" d="m40.4 13.2c-0.6 0-1.2-0.2-1.6-0.7-0.4-0.4-0.7-1-0.7-1.6q0-0.7 0.4-1.3 0.4-0.6 1.1-0.9 0.6-0.2 1.3-0.1 0.7 0.1 1.2 0.6 0.5 0.5 0.6 1.2 0.1 0.7-0.1 1.4-0.3 0.6-0.9 1-0.6 0.4-1.3 0.4zm0-3.5c-0.3 0-0.6 0.1-0.8 0.4-0.2 0.2-0.3 0.5-0.3 0.8q0 0.3 0.2 0.6 0.2 0.3 0.5 0.5 0.3 0.1 0.7 0 0.3 0 0.6-0.3 0.2-0.2 0.3-0.6 0-0.3-0.1-0.7-0.1-0.3-0.4-0.5-0.3-0.2-0.7-0.2z"/><path fill-rule="evenodd" class="a" d="m47 31.2q0 0.2 0 0.3 0 0.2-0.1 0.3-0.1 0.1-0.2 0.1-0.1 0.1-0.3 0.1h-45.8q-0.2 0-0.3-0.1-0.1 0-0.2-0.1-0.1-0.2-0.1-0.3 0-0.1 0-0.3l6.3-18.7q0.1-0.1 0.2-0.2 0.2-0.2 0.4-0.2h13.4l-1.3-1.8c-0.9-1.3-1.4-2.8-1.3-4.3 0.1-1.6 0.8-3 1.9-4.2q0.9-0.8 2-1.3 1.1-0.5 2.3-0.5 1.3 0 2.4 0.5 1.1 0.5 2 1.3c1.1 1.2 1.7 2.6 1.8 4.2 0.1 1.6-0.3 3.1-1.3 4.3l-1.4 2 9.4-0.2q-0.2-0.6-0.1-1.4c0.1-2.1 1.8-3.8 3.9-3.8 2 0 3.7 1.7 3.8 3.8 0.1 1-0.2 2-0.8 2.7l-1.5 2.1zm-9.2-20.5c0 0.7 0.2 1.4 0.6 2l2.2 2.9 2.1-2.9c0.5-0.6 0.7-1.3 0.6-2 0-1.3-1.1-2.7-2.7-2.7-1.6 0-2.7 1.4-2.8 2.7zm-14.7 14q0.1-0.1 0.2-0.2 0.1 0 0.2 0h1.1q-0.2-0.6-0.2-1.2c0.2-2.1 1.9-3.8 3.9-3.8 2.1 0 3.8 1.7 3.9 3.8q0.1 0.6-0.1 1.2h11.7l-1.5-4.7h-9.7q-0.3 0-0.4-0.1-0.2-0.2-0.2-0.4l-0.7-6-4.8 0.1-2.1 2.9q0 0.1-0.2 0.2-0.1 0-0.2 0-0.2 0-0.3 0-0.1-0.1-0.2-0.2l-2.3-3.2-13.9 0.1-2.5 7.6h2.3q-0.4-1.1-0.4-2.2c0.2-2.5 2.2-4.5 4.6-4.5 2.5 0 4.5 2 4.7 4.5 0 0.9-0.2 1.7-0.6 2.5l0.1 9.7h7.4v-5.7q0-0.1 0.1-0.2 0-0.2 0.1-0.2zm0.9-9.7l4-5.4c0.7-1 1.1-2.3 1-3.6 0-1.3-0.6-2.5-1.5-3.4q-0.7-0.7-1.6-1.1-0.9-0.4-1.9-0.4-1 0-1.9 0.4-0.9 0.4-1.6 1.1c-1 0.9-1.5 2.1-1.6 3.4-0.1 1.2 0.3 2.5 1.1 3.6zm-9.7 15.8v-8l-2.5 3.3q-0.1 0.1-0.2 0.2-0.1 0.1-0.2 0.1-0.2 0-0.3-0.1-0.1-0.1-0.2-0.2l-3.1-4.2h-3.4l-3 8.9zm-0.2-9.7c0.5-0.7 0.8-1.5 0.8-2.4-0.2-1.7-1.5-3.4-3.5-3.4-2.1 0-3.4 1.7-3.5 3.4-0.1 0.8 0.2 1.7 0.7 2.4l2.8 3.7zm18.3-7.8l0.7 5.4h8.8l-0.6-2.1-0.3 0.3q0 0.1-0.2 0.2-0.1 0-0.2 0-0.2 0-0.3 0-0.1-0.1-0.2-0.2l-2.6-3.5q0-0.1-0.1-0.2zm-1.9 12c0.4-0.5 0.6-1.2 0.6-1.9-0.1-1.3-1.2-2.7-2.8-2.7-1.6 0-2.6 1.4-2.7 2.7-0.1 0.7 0.2 1.4 0.6 1.9l2.1 2.9 2.2-2.9zm15.2 5.5l-1.6-5.1h-12.5q-0.1 0.2-0.2 0.3l-2.6 3.6q-0.1 0.1-0.2 0.1-0.1 0.1-0.3 0.1-0.1 0-0.2-0.1-0.2 0-0.2-0.1l-2.7-3.6q-0.1-0.1-0.1-0.3h-1v5.1z"/></g></svg>