<svg version="1.2" xmlns="http://www.w3.org/2000/svg" viewBox="0 0 30 30" width="30" height="30"><defs><clipPath clipPathUnits="userSpaceOnUse" id="cp1"><path d="m-745-3546h1400v3600h-1400z"/></clipPath></defs><style>.a{fill:#c5ac2d}</style><g clip-path="url(#cp1)"><path class="a" d="m13.1 12.2l4.9 2.8-4.9 2.8z"/><path fill-rule="evenodd" class="a" d="m30 15c0 8.3-6.7 15-15 15-8.3 0-15-6.7-15-15 0-8.3 6.7-15 15-15 8.3 0 15 6.7 15 15zm-5.6 0c0 0 0-3-0.4-4.5-0.2-0.8-0.9-1.4-1.7-1.7-1.4-0.4-7.3-0.4-7.3-0.4 0 0-5.9 0-7.3 0.4-0.8 0.2-1.5 0.9-1.7 1.7-0.4 1.5-0.4 4.5-0.4 4.5 0 0 0 3.1 0.4 4.5 0.2 0.8 0.9 1.4 1.7 1.7 1.4 0.4 7.3 0.4 7.3 0.4 0 0 5.9 0 7.3-0.4 0.8-0.2 1.5-0.9 1.7-1.7 0.4-1.4 0.4-4.5 0.4-4.5z"/></g></svg>